<svg width="168" height="168" viewBox="0 0 168 168" fill="none" xmlns="http://www.w3.org/2000/svg">
<g clip-path="url(#clip0_248_12)">
<path d="M168 84C168 37.6084 130.392 0 84 0C37.6084 0 0 37.6084 0 84C0 125.927 30.7177 160.678 70.875 166.98V108.281H49.5469V84H70.875V65.4938C70.875 44.4413 83.4159 32.8125 102.603 32.8125C111.794 32.8125 121.406 34.4531 121.406 34.4531V55.125H110.814C100.379 55.125 97.125 61.6002 97.125 68.2434V84H120.422L116.698 108.281H97.125V166.98C137.282 160.678 168 125.927 168 84Z" fill="#517A76"/>
<path d="M116.698 108.281L120.422 84H97.125V68.2434C97.125 61.5996 100.379 55.125 110.814 55.125H121.406V34.4531C121.406 34.4531 111.794 32.8125 102.603 32.8125C83.4159 32.8125 70.875 44.4413 70.875 65.4938V84H49.5469V108.281H70.875V166.98C75.2169 167.66 79.6051 168.001 84 168C88.3949 168.001 92.7832 167.66 97.125 166.98V108.281H116.698Z" fill="white"/>
</g>
<defs>
<clipPath id="clip0_248_12">
<rect width="168" height="168" fill="white"/>
</clipPath>
</defs>
</svg>
