<svg width="168" height="168" viewBox="0 0 168 168" fill="none" xmlns="http://www.w3.org/2000/svg">
<g clip-path="url(#clip0_248_15)">
<path d="M128.625 0H39.375C17.6288 0 0 17.6288 0 39.375V128.625C0 150.371 17.6288 168 39.375 168H128.625C150.371 168 168 150.371 168 128.625V39.375C168 17.6288 150.371 0 128.625 0Z" fill="#517A76"/>
<path d="M128.625 0H39.375C17.6288 0 0 17.6288 0 39.375V128.625C0 150.371 17.6288 168 39.375 168H128.625C150.371 168 168 150.371 168 128.625V39.375C168 17.6288 150.371 0 128.625 0Z" fill="#517A76"/>
<path d="M84.0059 18.375C66.1835 18.375 63.9463 18.4531 56.9468 18.7714C49.9603 19.0916 45.1913 20.1974 41.0189 21.8203C36.7021 23.4964 33.0409 25.7388 29.3934 29.3875C25.7427 33.0356 23.5003 36.6968 21.819 41.0117C20.1915 45.1854 19.0844 49.9564 18.7701 56.9395C18.457 63.9397 18.375 66.1776 18.375 84.0007C18.375 101.824 18.4538 104.054 18.7714 111.053C19.0929 118.04 20.1987 122.809 21.8203 126.981C23.4977 131.298 25.7401 134.959 29.3888 138.607C33.0356 142.257 36.6968 144.505 41.0104 146.181C45.1861 147.804 49.9557 148.91 56.9408 149.23C63.9411 149.548 66.1763 149.626 83.998 149.626C101.822 149.626 104.052 149.548 111.052 149.23C118.038 148.91 122.813 147.804 126.988 146.181C131.303 144.505 134.959 142.257 138.605 138.607C142.256 134.959 144.498 131.298 146.18 126.983C147.793 122.809 148.9 118.038 149.229 111.055C149.543 104.055 149.625 101.824 149.625 84.0007C149.625 66.1776 149.543 63.9411 149.229 56.9408C148.9 49.9544 147.793 45.1861 146.18 41.0137C144.498 36.6968 142.256 33.0356 138.605 29.3875C134.955 25.7375 131.304 23.4951 126.984 21.821C122.801 20.1974 118.029 19.091 111.043 18.7714C104.043 18.4531 101.814 18.375 83.9856 18.375H84.0059ZM78.1187 30.2013C79.8663 30.1987 81.816 30.2013 84.0059 30.2013C101.528 30.2013 103.605 30.2643 110.524 30.5786C116.923 30.8713 120.396 31.9403 122.709 32.8388C125.772 34.0279 127.955 35.45 130.251 37.7475C132.547 40.0444 133.969 42.2317 135.161 45.2944C136.06 47.6044 137.13 51.0773 137.421 57.4757C137.736 64.3939 137.804 66.4716 137.804 83.9856C137.804 101.5 137.736 103.578 137.421 110.495C137.129 116.894 136.06 120.367 135.161 122.677C133.972 125.74 132.547 127.921 130.251 130.216C127.954 132.513 125.773 133.935 122.709 135.125C120.398 136.027 116.923 137.093 110.524 137.386C103.606 137.7 101.528 137.769 84.0059 137.769C66.4827 137.769 64.4057 137.7 57.4882 137.386C51.0897 137.091 47.6168 136.022 45.3016 135.123C42.2395 133.933 40.0516 132.512 37.7547 130.215C35.4578 127.918 34.0364 125.736 32.844 122.672C31.9456 120.362 30.8753 116.889 30.5839 110.49C30.2695 103.572 30.2065 101.494 30.2065 83.9692C30.2065 66.4447 30.2695 64.3775 30.5839 57.4593C30.8766 51.0608 31.9456 47.588 32.844 45.2747C34.0338 42.212 35.4578 40.0247 37.7554 37.7278C40.0523 35.4309 42.2395 34.0088 45.3022 32.8171C47.6155 31.9147 51.0897 30.8483 57.4882 30.5543C63.5421 30.2807 65.8882 30.1987 78.1187 30.1849V30.2013ZM119.037 41.0977C114.689 41.0977 111.162 44.6217 111.162 48.97C111.162 53.3177 114.689 56.845 119.037 56.845C123.384 56.845 126.912 53.3177 126.912 48.97C126.912 44.6224 123.384 41.095 119.037 41.095V41.0977ZM84.0059 50.2989C65.3947 50.2989 50.3048 65.3888 50.3048 84.0007C50.3048 102.613 65.3947 117.695 84.0059 117.695C102.618 117.695 117.702 102.613 117.702 84.0007C117.702 65.3894 102.617 50.2989 84.0046 50.2989H84.0059ZM84.0059 62.1252C96.0868 62.1252 105.881 71.9184 105.881 84.0007C105.881 96.0816 96.0868 105.876 84.0059 105.876C71.9243 105.876 62.1311 96.0816 62.1311 84.0007C62.1311 71.9184 71.9243 62.1252 84.0059 62.1252Z" fill="white"/>
</g>
<defs>
<clipPath id="clip0_248_15">
<rect width="168" height="168" fill="white"/>
</clipPath>
</defs>
</svg>
