<svg width="23" height="23" viewBox="0 0 23 23" fill="none" xmlns="http://www.w3.org/2000/svg">
<g clip-path="url(#clip0_225_30)">
<path d="M0.490824 11.3624C0.490285 13.2948 0.99916 15.1817 1.96678 16.8449L0.398285 22.5273L6.25897 21.0025C7.87996 21.8781 9.69616 22.3369 11.5418 22.337H11.5466C17.6394 22.337 22.599 17.4176 22.6016 11.371C22.6028 8.44103 21.4539 5.68584 19.3665 3.61299C17.2794 1.54031 14.5037 0.398249 11.5462 0.396912C5.45272 0.396912 0.493429 5.31606 0.490914 11.3624" fill="url(#paint0_linear_225_30)"/>
<path d="M0.0961328 11.3588C0.0955039 13.3608 0.622617 15.3151 1.62473 17.0378L0 22.924L6.07083 21.3445C7.74354 22.2495 9.62685 22.7266 11.5432 22.7273H11.5482C17.8595 22.7273 22.9973 17.6309 23 11.3679C23.0011 8.3326 21.8108 5.47837 19.6488 3.33126C17.4866 1.18441 14.6116 0.00124806 11.5482 0C5.23573 0 0.0986484 5.09566 0.0961328 11.3588ZM3.71154 16.7411L3.48486 16.3841C2.53198 14.8807 2.02903 13.1434 2.02975 11.3595C2.03173 6.15375 6.30146 1.91845 11.5518 1.91845C14.0943 1.91952 16.4838 2.90299 18.281 4.68736C20.0782 6.47191 21.0671 8.84412 21.0665 11.3672C21.0641 16.5729 16.7943 20.8088 11.5482 20.8088H11.5444C9.83618 20.8079 8.16087 20.3527 6.69983 19.4925L6.35213 19.2879L2.74958 20.2251L3.71145 16.7411" fill="url(#paint1_linear_225_30)"/>
<path d="M8.68591 6.6101C8.47155 6.13735 8.24595 6.12781 8.04209 6.11952C7.87516 6.11239 7.68434 6.11292 7.49369 6.11292C7.30286 6.11292 6.99281 6.18415 6.73073 6.46809C6.46839 6.75229 5.72916 7.43908 5.72916 8.83593C5.72916 10.2329 6.75454 11.5828 6.89748 11.7724C7.04061 11.9617 8.87701 14.92 11.7854 16.058C14.2026 17.0038 14.6945 16.8157 15.2191 16.7683C15.7438 16.721 16.9121 16.0816 17.1505 15.4187C17.389 14.7558 17.389 14.1875 17.3175 14.0688C17.246 13.9505 17.0551 13.8794 16.769 13.7375C16.4827 13.5955 15.076 12.9086 14.8137 12.8139C14.5514 12.7192 14.3606 12.6719 14.1698 12.9562C13.979 13.2401 13.431 13.8794 13.264 14.0688C13.0972 14.2586 12.9301 14.2822 12.6441 14.1402C12.3577 13.9977 11.4362 13.6983 10.3429 12.7311C9.49226 11.9785 8.91798 11.0492 8.75105 10.7649C8.58412 10.4811 8.73317 10.3272 8.87665 10.1857C9.00522 10.0585 9.16289 9.85417 9.30611 9.68844C9.44878 9.52263 9.49639 9.40433 9.59181 9.21498C9.68731 9.02545 9.63952 8.85964 9.56809 8.71763C9.49639 8.57562 8.94035 7.17146 8.68591 6.6101Z" fill="white"/>
</g>
<defs>
<linearGradient id="paint0_linear_225_30" x1="1110.57" y1="2213.43" x2="1110.57" y2="0.396912" gradientUnits="userSpaceOnUse">
<stop stop-color="#646765"/>
<stop offset="1" stop-color="#646765"/>
</linearGradient>
<linearGradient id="paint1_linear_225_30" x1="1150" y1="2292.4" x2="1150" y2="0" gradientUnits="userSpaceOnUse">
<stop stop-color="#F9F9F9"/>
<stop offset="1" stop-color="white"/>
</linearGradient>
<clipPath id="clip0_225_30">
<rect width="23" height="23" fill="white"/>
</clipPath>
</defs>
</svg>
