<svg width="174" height="174" viewBox="0 0 174 174" fill="none" xmlns="http://www.w3.org/2000/svg">
<g clip-path="url(#clip0_248_20)">
<path d="M3.71326 85.9587C3.70918 100.578 7.55893 114.853 14.8792 127.435L3.01318 170.424L47.3506 158.888C59.6137 165.513 73.3536 168.983 87.3162 168.984H87.3529C133.446 168.984 170.967 131.768 170.986 86.0241C170.995 63.858 162.303 43.0144 146.512 27.3328C130.722 11.6526 109.723 3.01262 87.3495 3.0025C41.2511 3.0025 3.73297 40.2169 3.71394 85.9587" fill="url(#paint0_linear_248_20)"/>
<path d="M0.727266 85.9317C0.722508 101.077 4.71023 115.862 12.2915 128.895L0 173.425L45.9272 161.476C58.5816 168.322 72.8292 171.932 87.3269 171.937H87.3643C135.111 171.937 173.98 133.382 174 86.0005C174.008 63.0379 165.004 41.445 148.648 25.2017C132.29 8.96033 110.54 0.00944186 87.3643 0C39.6095 0 0.746297 38.5498 0.727266 85.9317ZM28.0786 126.65L26.3637 123.949C19.155 112.576 15.3501 99.4329 15.3555 85.9371C15.3705 46.5544 47.6719 14.5135 87.3915 14.5135C106.627 14.5216 124.704 21.9618 138.3 35.4609C151.896 48.9614 159.377 66.9077 159.372 85.9951C159.355 125.378 127.053 157.423 87.3643 157.423H87.3358C74.4129 157.416 61.7387 153.972 50.6857 147.465L48.0553 145.917L20.8012 153.007L28.0779 126.65" fill="url(#paint1_linear_248_20)"/>
<path d="M65.7108 50.0068C64.0891 46.4303 62.3824 46.3582 60.8402 46.2955C59.5773 46.2415 58.1336 46.2456 56.6913 46.2456C55.2477 46.2456 52.9021 46.7844 50.9194 48.9324C48.9348 51.0825 43.3423 56.2782 43.3423 66.8457C43.3423 77.4138 51.0996 87.6265 52.1809 89.061C53.2637 90.4928 67.1565 112.873 89.1593 121.482C107.446 128.637 111.167 127.214 115.136 126.855C119.105 126.498 127.944 121.661 129.747 116.645C131.551 111.63 131.551 107.332 131.01 106.433C130.469 105.538 129.026 105.001 126.861 103.927C124.695 102.853 114.053 97.6565 112.069 96.9396C110.084 96.2233 108.641 95.8659 107.198 98.0166C105.754 100.164 101.608 105.001 100.345 106.433C99.0828 107.869 97.8192 108.048 95.6551 106.974C93.4889 105.896 86.5174 103.63 78.2463 96.3137C71.811 90.6203 67.4664 83.5895 66.2036 81.4387C64.9407 79.2914 66.0683 78.1273 67.1538 77.057C68.1264 76.0946 69.3193 74.5489 70.4027 73.2951C71.482 72.0407 71.8423 71.1458 72.5641 69.7133C73.2866 68.2795 72.925 67.0251 72.3847 65.9507C71.8423 64.8764 67.6357 54.2536 65.7108 50.0068Z" fill="white"/>
</g>
<defs>
<linearGradient id="paint0_linear_248_20" x1="8401.67" y1="16745.1" x2="8401.67" y2="3.0025" gradientUnits="userSpaceOnUse">
<stop stop-color="#517A76"/>
<stop offset="1" stop-color="#517A76"/>
</linearGradient>
<linearGradient id="paint1_linear_248_20" x1="8700" y1="17342.5" x2="8700" y2="0" gradientUnits="userSpaceOnUse">
<stop stop-color="#F9F9F9"/>
<stop offset="1" stop-color="white"/>
</linearGradient>
<clipPath id="clip0_248_20">
<rect width="174" height="174" fill="white"/>
</clipPath>
</defs>
</svg>
